<?xml version="1.0" encoding="utf-8"?>
<!-- Generator: Adobe Illustrator 20.0.0, SVG Export Plug-In . SVG Version: 6.00 Build 0)  -->
<svg version="1.1" id="Capa_1" xmlns="http://www.w3.org/2000/svg" xmlns:xlink="http://www.w3.org/1999/xlink" x="0px" y="0px"
	 viewBox="50 300 1196 280" style="enable-background:new 0 0 1296 864;" xml:space="preserve">
<style type="text/css">
	.st0{fill:#009BDB;}
	.st1{fill:#727176;}
	.st2{font-family:'Helvetica';}
	.st3{font-size:39.0641px;}
	.st4{fill:#FFFFFF;}
</style>
<g>
	<g>
		<path class="st0" d="M247,332c-13.5-13.1-29.8-19.4-48.6-19.3c-29.3,0.1-58.6,0-88,0c-0.7,0-1.4,0-2.1,0c-4.4,0.3-7.8,3.5-8.4,7.8
			c-0.6,4.4,1.9,8.5,6.1,9.7c1.5,0.4,3.1,0.5,4.6,0.5c29.1,0,58.2,0,87.3,0.1c3.4,0,6.8,0.1,10.1,0.7c26.9,4.9,44.4,29.2,40.7,56.1
			c-3.3,24.2-24.3,42.7-48.7,42.8c-29.1,0.1-58.2,0-87.3,0c-0.6,0-1.2-0.1-2-0.2c0.7-0.7,1.2-1.3,1.7-1.8
			c6.9-6.9,13.7-13.7,20.6-20.6c4-4,4.2-9.5,0.5-13.2c-3.7-3.8-9.3-3.7-13.4,0.4c-12.5,12.5-25,24.9-37.4,37.4
			c-4.4,4.4-4.4,9.6,0,14c8.9,8.9,17.7,17.7,26.6,26.6c3.8,3.8,7.6,7.7,11.4,11.4c2.8,2.7,6.3,3.2,9.8,1.8c3.5-1.4,5.5-4.8,5.5-8.6
			c0-2.7-1.3-4.9-3.1-6.7c-7.3-7.3-14.6-14.6-22.4-22.4c1.5,0,2.3,0,3.1,0c28.2,0,56.4,0.1,84.6-0.1c5,0,10.1-0.4,15-1.4
			c35-7.3,57.9-39.3,53.8-74.9C265.2,356.5,258.5,343,247,332z"/>
		<path class="st0" d="M301,335.1c-2.4-1.7-5.4-2.5-8.9-2.5c-3.5,0-6.5,0.8-8.9,2.5c-2.8,1.9-4.2,4.5-4.2,7.8c0,3.3,1.4,5.9,4.2,7.8
			c2.4,1.7,5.4,2.5,8.9,2.5c3.5,0,6.5-0.8,8.9-2.5c2.8-1.9,4.2-4.5,4.2-7.8C305.2,339.6,303.8,337,301,335.1z"/>
		<path class="st0" d="M298.4,355.8c-0.8-0.4-3.7-0.7-8.5-0.7c-5,0-7.5,2.5-7.5,7.4v76.8c0,3.6,1.3,5.9,3.9,6.9
			c0.8,0.4,3.7,0.7,8.6,0.7c5,0,7.5-2.5,7.5-7.5v-76.8C302.4,359,301.1,356.7,298.4,355.8z"/>
		<path class="st0" d="M425,360.7c-9.7-3.6-20.6-5.3-32.6-5.3h-3.7h-2.4h-1.4c-0.9,0-1.4,0-1.4-0.1c-2-0.1-3.8-0.1-5.2-0.1
			c-1.5,0-2.7,0-3.7,0c-37.9,0-56.8,9.6-56.8,28.8v33.9c0,10.9,6.1,18.7,18.3,23.4c8.4,3.2,19.1,4.9,32.1,4.9h55.2
			c-0.4,2.2-4.3,4.3-11.5,6.4c-7,1.8-11.8,2.8-14.3,2.8h-14.6c-5,0-7.5,2.5-7.5,7.4c0,6.3,2.5,9.4,7.5,9.4h8.4
			c13.4,0,24.4-1.8,33.1-5.2c13.1-4.9,19.6-12.6,19.6-23.1v-59.7C444,373.5,437.7,365.7,425,360.7z M423.7,429.3h-56
			c-20,0-29.9-3.9-29.9-11.7v-34c0-5.1,3.3-8.5,10-10.1c3.2-0.8,8.6-1.1,16.1-1.1h31.8c5.2,0,10.8,0.8,16.9,2.5
			c7.4,2.3,11.2,5.7,11.2,10.2V429.3z"/>
		<path class="st0" d="M475.9,355.8c-0.8-0.4-3.7-0.7-8.5-0.7c-5,0-7.5,2.5-7.5,7.4v76.8c0,3.6,1.3,5.9,3.9,6.9
			c0.8,0.4,3.7,0.7,8.6,0.7c5,0,7.5-2.5,7.5-7.5v-76.8C479.9,359,478.5,356.7,475.9,355.8z"/>
		<path class="st0" d="M478.4,335.1c-2.4-1.7-5.4-2.5-8.9-2.5c-3.5,0-6.5,0.8-8.9,2.5c-2.8,1.9-4.2,4.5-4.2,7.8
			c0,3.3,1.4,5.9,4.2,7.8c2.4,1.7,5.4,2.5,8.9,2.5c3.5,0,6.5-0.8,8.9-2.5c2.8-1.9,4.2-4.5,4.2-7.8
			C482.6,339.6,481.2,337,478.4,335.1z"/>
		<path class="st0" d="M605.6,384.2c-7.8-3.5-18.5-5.2-32-5.2h-28.3c-4.6,0-8.4-0.1-11.6-0.2c-3.1-0.2-5.5-0.4-7.2-0.7
			c-8.6-1.5-13-4.8-13-9.8v-8.1c0-8.1,11.6-12.2,34.7-12.2c5.6,0,8.6-0.1,9.1-0.4c3-1,4.5-3.3,4.5-7.1c0-6.5-2.5-9.7-7.4-9.7
			c-19.1,0-32.3,0.9-39.5,2.8c-15,4.3-22.5,13.3-22.5,26.8v8.8c0,7.4,3,13.4,9,18c5.5,4.1,12,6.6,19.6,7.5c4.4,0.3,8.1,0.6,11.1,0.7
			c3,0.2,5.4,0.3,7,0.3l35.2,1.1c19.1,0.6,28.7,4.5,28.7,11.6v10c0,7.3-9.9,11-29.7,11H500c-3.1,0-5.1,0.9-6.2,2.8
			c-0.8,1.3-1.1,3.7-1.1,7.2c0,5,2.4,7.5,7.3,7.5h73.3c26.6,0,42.6-4.7,47.9-14.2c2-3.5,3-8.4,3-14.6v-10.4
			C624.1,397.1,618,389.3,605.6,384.2z"/>
		<path class="st0" d="M807.1,355c-5.5,0-9.1,1.5-10.6,4.5l-30.8,59.7l-30.1-55.7c-2.4-4.4-6.2-6.6-11.4-6.6
			c-5.4,0-9.3,2.2-11.6,6.7l-30.1,55.6l-30.9-59.7c-1.7-3-5.2-4.5-10.7-4.5c-6.3,0-9.4,2.2-9.4,6.5c0,0.7,0.4,2.3,1.3,4.8l36.5,72.5
			c2.2,4.4,6.3,6.6,12.5,6.6c5.9,0,10-2.1,12.3-6.3l30.1-55.8l29.7,55.6c2.2,4.1,6.2,6.2,11.9,6.2c6,0,10-2.1,12.2-6.4l37.3-72.4
			c1-1.8,1.4-3.4,1.4-4.8C816.7,357.2,813.5,355,807.1,355z"/>
		<path class="st0" d="M931.6,360.6c-6.9-3.5-15.7-5.2-26.2-5.2h-37.6c-12.9,0-23.3,1.8-31.1,5.5c-11.4,5.1-17.2,12.9-17.2,23.5V418
			c0,7.8,3.7,14.6,11.2,20.4c5.2,4.1,13.4,6.7,24.4,7.8c2.2,0.3,5.5,0.4,9.8,0.5s9.8,0.1,16.5,0.1c5,0,7.4-2.5,7.4-7.5
			c0-6.2-2.5-9.3-7.4-9.3c-6.5,0-11.9-0.1-16.2-0.4c-4.2-0.3-7.5-0.7-9.7-1.2c-10.2-2.5-15.3-8-15.3-16.7V411h100
			c3.8,0,5.6-2.8,5.6-8.3v-22C946,371.7,941.2,365,931.6,360.6z M926.3,393.6h-86.7v-10.5c0-4.6,4.2-7.8,12.7-9.3
			c6-1.1,17-1.7,33.1-1.7c27.3,0,40.9,3.4,40.9,10.3V393.6z"/>
		<path class="st0" d="M1066,360.6c-6.9-3.5-15.7-5.2-26.2-5.2h-37.6c-12.9,0-23.3,1.8-31.1,5.5c-11.4,5.1-17.2,12.9-17.2,23.5V418
			c0,7.8,3.7,14.6,11.2,20.4c5.2,4.1,13.4,6.7,24.4,7.8c2.2,0.3,5.5,0.4,9.8,0.5s9.8,0.1,16.5,0.1c5,0,7.4-2.5,7.4-7.5
			c0-6.2-2.5-9.3-7.4-9.3c-6.5,0-11.9-0.1-16.2-0.4c-4.2-0.3-7.5-0.7-9.7-1.2c-10.2-2.5-15.3-8-15.3-16.7V411h100
			c3.8,0,5.6-2.8,5.6-8.3v-22C1080.4,371.7,1075.6,365,1066,360.6z M1060.8,393.6h-86.7v-10.5c0-4.6,4.2-7.8,12.7-9.3
			c6-1.1,17-1.7,33.1-1.7c27.3,0,40.9,3.4,40.9,10.3V393.6z"/>
		<path class="st0" d="M1168.8,355.4h-32c-14,0-24,1.4-30.1,4.1c-10.6,4.3-15.8,12-15.8,23.1v82.1c0,5,2.5,7.4,7.4,7.4
			c4.9,0,7.8-0.2,8.6-0.7c2.7-1,4.1-3.2,4.1-6.8v-18.6h62.7c29,0,43.5-9.4,43.5-28.3v-35.5C1217.2,364.4,1201.1,355.4,1168.8,355.4z
			 M1196.9,418.1c0,7.5-7.7,11.3-23.2,11.3H1111v-46.2c0-7.2,8.9-10.8,26.7-10.8h31.4c8.1,0,13.7,0.3,16.7,0.9
			c7.4,1.5,11.2,4.6,11.2,9.4V418.1z"/>
	</g>
	<text transform="matrix(1 0 0 1 72.3311 554.4579)" class="st1 st2 st3">A simple tool for sweeping multiple private keys to new addresses</text>
</g>
</svg>
